<svg width="42" height="44" viewBox="0 0 42 44" fill="none" xmlns="http://www.w3.org/2000/svg">
<path d="M4.63907 43.5217V0.478261C4.63907 0.215217 4.41932 0 4.15074 0L0.48832 0C0.219743 0 -9.53674e-07 0.215217 -9.53674e-07 0.478261V43.5217C-9.53674e-07 43.7848 0.219743 44 0.48832 44H4.15074C4.41932 44 4.63907 43.7848 4.63907 43.5217ZM32.3697 14.5272V18.9451L11.7197 18.9451C11.4512 18.9451 11.2314 19.1603 11.2314 19.4234V23.0103C11.2314 23.2734 11.4512 23.4886 11.7197 23.4886L32.3697 23.4886V27.9185C32.3697 28.319 32.8397 28.5402 33.1571 28.2951L41.8126 21.5995C41.871 21.5547 41.9182 21.4976 41.9507 21.4323C41.9831 21.367 42 21.2954 42 21.2228C42 21.1502 41.9831 21.0786 41.9507 21.0133C41.9182 20.9481 41.871 20.8909 41.8126 20.8462L33.1632 14.1505C32.8397 13.9054 32.3697 14.1266 32.3697 14.5272Z" fill="#FF0000"/>
</svg>
