<svg width="51" height="51" viewBox="0 0 51 51" fill="none" xmlns="http://www.w3.org/2000/svg">
<path d="M0 25.5C-4.98996e-08 22.1513 0.659577 18.8354 1.94107 15.7416C3.22257 12.6478 5.10088 9.83667 7.46878 7.46878C9.83667 5.10088 12.6478 3.22257 15.7416 1.94107C18.8354 0.659577 22.1513 0 25.5 0C28.8487 0 32.1646 0.659577 35.2584 1.94107C38.3522 3.22257 41.1633 5.10088 43.5312 7.46878C45.8991 9.83667 47.7774 12.6478 49.0589 15.7416C50.3404 18.8354 51 22.1513 51 25.5C51 32.263 48.3134 38.749 43.5312 43.5312C38.749 48.3134 32.263 51 25.5 51C18.737 51 12.251 48.3134 7.46878 43.5312C2.6866 38.749 1.00777e-07 32.263 0 25.5ZM25.5 12.75C24.9364 12.75 24.3959 12.9739 23.9974 13.3724C23.5989 13.7709 23.375 14.3114 23.375 14.875V23.375H14.875C14.3114 23.375 13.7709 23.5989 13.3724 23.9974C12.9739 24.3959 12.75 24.9364 12.75 25.5C12.75 26.0636 12.9739 26.6041 13.3724 27.0026C13.7709 27.4011 14.3114 27.625 14.875 27.625H23.375V36.125C23.375 36.6886 23.5989 37.2291 23.9974 37.6276C24.3959 38.0261 24.9364 38.25 25.5 38.25C26.0636 38.25 26.6041 38.0261 27.0026 37.6276C27.4011 37.2291 27.625 36.6886 27.625 36.125V27.625H36.125C36.6886 27.625 37.2291 27.4011 37.6276 27.0026C38.0261 26.6041 38.25 26.0636 38.25 25.5C38.25 24.9364 38.0261 24.3959 37.6276 23.9974C37.2291 23.5989 36.6886 23.375 36.125 23.375H27.625V14.875C27.625 14.3114 27.4011 13.7709 27.0026 13.3724C26.6041 12.9739 26.0636 12.75 25.5 12.75Z" fill="#FF0000"/>
</svg>
