<svg width="35" height="35" viewBox="0 0 35 35" fill="none" xmlns="http://www.w3.org/2000/svg">
<rect width="35" height="35" rx="5" fill="#FFD600"/>
<path d="M17.5 21.2727C19.341 21.2727 20.8334 19.8075 20.8334 18C20.8334 16.1925 19.341 14.7273 17.5 14.7273C15.659 14.7273 14.1666 16.1925 14.1666 18C14.1666 19.8075 15.659 21.2727 17.5 21.2727Z" fill="white"/>
<path d="M29.9504 17.7218C28.9702 15.2326 27.2686 13.08 25.0559 11.5299C22.8432 9.97982 20.2163 9.10029 17.5 9C14.7837 9.10029 12.1568 9.97982 9.94412 11.5299C7.7314 13.08 6.02981 15.2326 5.04965 17.7218C4.98345 17.9016 4.98345 18.0984 5.04965 18.2782C6.02981 20.7674 7.7314 22.92 9.94412 24.4701C12.1568 26.0202 14.7837 26.8997 17.5 27C20.2163 26.8997 22.8432 26.0202 25.0559 24.4701C27.2686 22.92 28.9702 20.7674 29.9504 18.2782C30.0166 18.0984 30.0166 17.9016 29.9504 17.7218ZM17.5 23.3182C16.4287 23.3182 15.3814 23.0063 14.4906 22.4219C13.5998 21.8375 12.9055 21.007 12.4955 20.0352C12.0855 19.0634 11.9783 17.9941 12.1873 16.9625C12.3963 15.9308 12.9122 14.9832 13.6697 14.2395C14.4273 13.4957 15.3925 12.9892 16.4432 12.784C17.494 12.5788 18.5831 12.6841 19.5729 13.0866C20.5627 13.4892 21.4087 14.1708 22.0039 15.0454C22.5991 15.9199 22.9168 16.9482 22.9168 18C22.9146 19.4098 22.3432 20.7612 21.3278 21.7581C20.3125 22.755 18.936 23.316 17.5 23.3182Z" fill="white"/>
</svg>
