<svg width="46" height="57" viewBox="0 0 46 57" fill="none" xmlns="http://www.w3.org/2000/svg">
<path d="M23 0L0 10.3636V25.9091C0 40.2886 9.81333 53.7355 23 57C36.1867 53.7355 46 40.2886 46 25.9091V10.3636L23 0ZM23 10.1045C24.5163 10.1045 25.9986 10.5604 27.2594 11.4145C28.5201 12.2686 29.5028 13.4825 30.0831 14.9028C30.6633 16.3231 30.8152 17.8859 30.5194 19.3937C30.2235 20.9014 29.4934 22.2864 28.4212 23.3734C27.349 24.4605 25.9829 25.2007 24.4957 25.5006C23.0085 25.8006 21.467 25.6466 20.0661 25.0583C18.6652 24.47 17.4678 23.4738 16.6254 22.1956C15.783 20.9173 15.3333 19.4146 15.3333 17.8773C15.3333 15.8158 16.1411 13.8388 17.5788 12.3811C19.0166 10.9235 20.9667 10.1045 23 10.1045ZM23 30.5727C28.1111 30.5727 38.3333 33.3968 38.3333 38.5527C36.6549 41.118 34.3764 43.2224 31.701 44.6781C29.0255 46.1338 26.0364 46.8956 23 46.8956C19.9636 46.8956 16.9745 46.1338 14.299 44.6781C11.6236 43.2224 9.34508 41.118 7.66667 38.5527C7.66667 33.3968 17.8889 30.5727 23 30.5727Z" fill="#FF0000"/>
</svg>
