<svg width="35" height="35" viewBox="0 0 35 35" fill="none" xmlns="http://www.w3.org/2000/svg">
<rect width="35" height="35" rx="5" fill="#309CFF"/>
<path d="M27.2 25.1H8.8C8.3575 25.1 8 25.4575 8 25.9V26.8C8 26.91 8.09 27 8.2 27H27.8C27.91 27 28 26.91 28 26.8V25.9C28 25.4575 27.6425 25.1 27.2 25.1ZM11.6425 23C11.6925 23 11.7425 22.995 11.7925 22.9875L15.9975 22.25C16.0475 22.24 16.095 22.2175 16.13 22.18L26.7275 11.5825C26.7507 11.5594 26.7691 11.5319 26.7816 11.5017C26.7942 11.4714 26.8006 11.439 26.8006 11.4062C26.8006 11.3735 26.7942 11.3411 26.7816 11.3108C26.7691 11.2806 26.7507 11.2531 26.7275 11.23L22.5725 7.0725C22.525 7.025 22.4625 7 22.395 7C22.3275 7 22.265 7.025 22.2175 7.0725L11.62 17.67C11.5825 17.7075 11.56 17.7525 11.55 17.8025L10.8125 22.0075C10.7882 22.1414 10.7969 22.2793 10.8378 22.4091C10.8788 22.5389 10.9507 22.6568 11.0475 22.7525C11.2125 22.9125 11.42 23 11.6425 23Z" fill="white"/>
</svg>
