<svg width="62" height="56" viewBox="0 0 62 56" fill="none" xmlns="http://www.w3.org/2000/svg">
<path d="M30.7221 0.225091C28.1673 0.941444 27.5924 2.56952 29.2531 4.39297C31.0415 6.34666 31.0415 7.3235 29.1253 8.1701C28.0395 8.69109 27.2731 8.69109 26.1873 8.10498C25.0376 7.45375 24.846 6.93277 25.1014 5.17444C25.2931 4.00223 25.1014 2.69977 24.7182 2.30903C22.9298 0.485583 15.9678 2.43927 15.9678 4.7837C15.9678 6.41178 16.6066 6.80252 20.2472 7.3235C23.824 7.84449 25.2931 9.60281 23.3769 11.1006C21.333 12.5985 18.9059 12.2077 17.0537 10.0587C14.8182 7.51887 11.7523 7.45375 7.85618 9.73306C0.8942 13.9661 5.55681 18.7852 13.2214 15.2034C17.4369 13.2497 19.9917 12.9241 21.2692 14.2917C22.8659 15.8546 22.6105 16.8966 20.3111 18.8503C18.395 20.5435 17.9479 20.6086 14.0517 20.2179C10.5388 19.8923 9.38909 20.0876 6.70649 21.3901C2.17163 23.5391 0 26.3394 0 30.0515C0 32.3959 0.383228 33.3076 1.91614 34.9357C4.15164 37.215 5.55681 37.0847 10.0278 34.4147C13.0936 32.5912 15.2014 29.9863 17.1814 25.6882C19.4169 20.804 23.9518 19.0457 26.6982 21.9762C28.8699 24.3206 28.4866 26.2092 25.4208 28.8792C20.0556 33.503 17.5008 36.4986 16.7343 39.1687C14.4988 46.7881 17.3091 54.0819 23.1853 55.7099C30.5944 57.7288 38.1312 48.872 36.726 39.6245C36.4706 37.736 35.3847 35.5218 33.4686 32.9169C30.4666 28.8141 29.9557 26.3394 31.6802 23.8648C33.0854 21.7808 36.0235 21.9762 38.3867 24.3206C39.9835 26.0138 40.239 26.7302 40.239 29.9212C40.239 36.0428 41.3886 39.2989 44.71 42.6853C49.5642 47.6347 54.8016 48.4162 58.3146 44.7041C61.6997 41.0572 61.9552 37.5406 59.0171 32.3959C56.6539 28.228 53.8436 26.4046 48.2868 25.3626C42.9854 24.4509 40.5583 23.2135 39.4725 20.804C38.5144 18.5898 39.728 17.2222 42.7938 17.2222C44.6461 17.2222 45.8596 17.8083 48.0313 19.5666C52.7577 23.6694 57.5481 24.8416 60.5501 22.6925C64.9572 19.5666 58.57 12.0124 51.4164 12.0124C50.7139 12.0124 48.9893 12.7287 47.5842 13.6404C44.3267 15.6593 41.5164 15.7244 39.728 13.7707C38.0673 11.9472 38.0035 11.7519 39.3448 10.4494C40.0473 9.73306 41.5803 9.40744 44.3906 9.40744C47.4564 9.40744 48.7339 9.08183 49.8835 8.10498L51.4164 6.80252L49.6281 5.17444C47.5842 3.351 43.9435 2.43927 41.5803 3.28587C40.3667 3.74174 39.8557 4.45809 39.728 5.82567C39.4725 8.10498 38.0673 9.40744 35.768 9.40744C32.1273 9.40744 31.5525 6.7374 34.8099 4.7837C36.0235 4.00223 37.0454 3.02538 37.0454 2.56952C37.0454 0.811198 33.5325 -0.556386 30.7221 0.225091Z" fill="white"/>
</svg>
