<svg width="36" height="36" viewBox="0 0 36 36" fill="none" xmlns="http://www.w3.org/2000/svg">
<path d="M32 0H4C2.93913 0 1.92172 0.421427 1.17157 1.17157C0.421427 1.92172 0 2.93913 0 4V32C0 33.0609 0.421427 34.0783 1.17157 34.8284C1.92172 35.5786 2.93913 36 4 36H32C33.0609 36 34.0783 35.5786 34.8284 34.8284C35.5786 34.0783 36 33.0609 36 32V4C36 2.93913 35.5786 1.92172 34.8284 1.17157C34.0783 0.421427 33.0609 0 32 0ZM25.2 28L18 20.8L10.8 28L8 25.2L15.2 18L8 10.8L10.8 8L18 15.2L25.2 8L28 10.8L20.8 18L28 25.2L25.2 28Z" fill="#FF0000"/>
</svg>
