<svg width="130" height="115" viewBox="0 0 130 115" fill="none" xmlns="http://www.w3.org/2000/svg">
<path d="M64.1333 0.460852C58.8 1.92752 57.6 5.26085 61.0667 8.99418C64.8 12.9942 64.8 14.9942 60.8 16.7275C58.5333 17.7942 56.9333 17.7942 54.6667 16.5942C52.2667 15.2609 51.8667 14.1942 52.4 10.5942C52.8 8.19419 52.4 5.52752 51.6 4.72752C47.8667 0.994185 33.3333 4.99418 33.3333 9.79418C33.3333 13.1275 34.6667 13.9275 42.2667 14.9942C49.7333 16.0609 52.8 19.6609 48.8 22.7275C44.5333 25.7942 39.4667 24.9942 35.6 20.5942C30.9333 15.3942 24.5333 15.2609 16.4 19.9275C1.86667 28.5942 11.6 38.4608 27.6 31.1275C36.4 27.1275 41.7333 26.4609 44.4 29.2609C47.7333 32.4608 47.2 34.5942 42.4 38.5942C38.4 42.0609 37.4667 42.1942 29.3333 41.3942C22 40.7275 19.6 41.1275 14 43.7942C4.53333 48.1942 0 53.9275 0 61.5275C0 66.3275 0.8 68.1942 4 71.5275C8.66667 76.1942 11.6 75.9275 20.9333 70.4608C27.3333 66.7275 31.7333 61.3942 35.8667 52.5942C40.5333 42.5942 50 38.9942 55.7333 44.9942C60.2667 49.7942 59.4667 53.6608 53.0667 59.1275C41.8667 68.5942 36.5333 74.7275 34.9333 80.1942C30.2667 95.7942 36.1333 110.728 48.4 114.061C63.8667 118.194 79.6 100.061 76.6667 81.1275C76.1333 77.2608 73.8667 72.7275 69.8667 67.3942C63.6 58.9942 62.5333 53.9275 66.1333 48.8608C69.0667 44.5942 75.2 44.9942 80.1333 49.7942C83.4667 53.2608 84 54.7275 84 61.2608C84 73.7942 86.4 80.4608 93.3333 87.3942C103.467 97.5275 114.4 99.1275 121.733 91.5275C128.8 84.0608 129.333 76.8608 123.2 66.3275C118.267 57.7942 112.4 54.0609 100.8 51.9275C89.7333 50.0609 84.6667 47.5275 82.4 42.5942C80.4 38.0608 82.9333 35.2608 89.3333 35.2608C93.2 35.2608 95.7333 36.4608 100.267 40.0608C110.133 48.4608 120.133 50.8608 126.4 46.4608C135.6 40.0609 122.267 24.5942 107.333 24.5942C105.867 24.5942 102.267 26.0609 99.3333 27.9275C92.5333 32.0609 86.6667 32.1942 82.9333 28.1942C79.4667 24.4608 79.3333 24.0609 82.1333 21.3942C83.6 19.9275 86.8 19.2609 92.6667 19.2609C99.0667 19.2609 101.733 18.5942 104.133 16.5942L107.333 13.9275L103.6 10.5942C99.3333 6.86085 91.7333 4.99419 86.8 6.72752C84.2667 7.66085 83.2 9.12752 82.9333 11.9275C82.4 16.5942 79.4667 19.2609 74.6667 19.2609C67.0667 19.2609 65.8667 13.7942 72.6667 9.79418C75.2 8.19419 77.3333 6.19419 77.3333 5.26085C77.3333 1.66085 70 -1.13915 64.1333 0.460852Z" fill="#FF0000"/>
</svg>
