<svg width="35" height="35" viewBox="0 0 35 35" fill="none" xmlns="http://www.w3.org/2000/svg">
<rect width="35" height="35" rx="5" fill="#FF0000"/>
<path d="M26.2083 11.6H23.0417V9.6C23.0417 8.7175 22.3316 8 21.4583 8H13.5417C12.6684 8 11.9583 8.7175 11.9583 9.6V11.6H8.79167C8.35378 11.6 8 11.9575 8 12.4V13.2C8 13.31 8.08906 13.4 8.19792 13.4H9.69219L10.3033 26.475C10.3428 27.3275 11.0405 28 11.8841 28H23.1159C23.962 28 24.6572 27.33 24.6967 26.475L25.3078 13.4H26.8021C26.9109 13.4 27 13.31 27 13.2V12.4C27 11.9575 26.6462 11.6 26.2083 11.6ZM21.2604 11.6H13.7396V9.8H21.2604V11.6Z" fill="white"/>
</svg>
