<svg width="42" height="41" viewBox="0 0 42 41" fill="none" xmlns="http://www.w3.org/2000/svg">
<path d="M21 0C23.7848 0 26.4555 1.07991 28.4246 3.00216C30.3938 4.9244 31.5 7.53153 31.5 10.25C31.5 12.9685 30.3938 15.5756 28.4246 17.4978C26.4555 19.4201 23.7848 20.5 21 20.5C18.2152 20.5 15.5445 19.4201 13.5754 17.4978C11.6062 15.5756 10.5 12.9685 10.5 10.25C10.5 7.53153 11.6062 4.9244 13.5754 3.00216C15.5445 1.07991 18.2152 0 21 0ZM21 25.625C32.6025 25.625 42 30.2119 42 35.875V41H0V35.875C0 30.2119 9.3975 25.625 21 25.625Z" fill="#FF0000"/>
</svg>
